<svg xmlns="http://www.w3.org/2000/svg" class="logo-name" width="2" viewBox="0 0 120 30">
    <path d="M7.95585185,21.5912097 C4.58962963,21.5912097 1.85333333,18.7618465 1.85333333,15.2838652 C1.85333333,11.8058839 4.58962963,8.97948653 7.95585185,8.97948653 C11.3220741,8.97948653 14.0583704,11.8058839 14.0583704,15.2838652 C14.0583704,18.7618465 11.3220741,21.5912097 7.95585185,21.5912097 M15.9117037,15.2838652 C15.9117037,15.281196 15.9114074,15.2791199 15.9114074,15.2764507 L15.9114074,8.20067021 C15.9114074,7.68877495 15.4965926,7.273861 14.9854815,7.273861 C14.4740741,7.273861 14.0595556,7.68877495 14.0595556,8.20067021 L14.0583704,11.0033413 C14.0583704,11.0033413 12.693037,7.61285074 8.80237037,7.16946521 C8.53451852,7.13921416 8.25096296,7.12438521 7.95585185,7.12438521 C3.568,7.12438521 0,10.7862455 0,15.2838652 C0,19.7844507 3.568,23.4433452 7.95585185,23.4433452 C8.25096296,23.4433452 8.53451852,23.4282197 8.80237037,23.3979686 C12.693037,22.9545831 14.0583704,19.5611268 14.0583704,19.5611268 L14.0595556,21.7365334 C14.0595556,22.5402623 13.9022222,23.3193752 13.5925926,24.0522218 C13.2936296,24.7604523 12.8645926,25.3969107 12.3188148,25.9438023 C11.7721481,26.4903973 11.1362963,26.9195471 10.4287407,27.2190918 C9.6962963,27.5290168 8.91822222,27.6865002 8.11525926,27.6865002 C7.3122963,27.6865002 6.53392593,27.5290168 5.80148148,27.2190918 C5.09422222,26.9195471 4.45837037,26.4903973 3.9122963,25.9438023 C3.36592593,25.3969107 2.93718519,24.7604523 2.63792593,24.0522218 C2.43881481,23.5809578 1.8957037,23.3600065 1.42459259,23.5596042 C0.953481481,23.7589052 0.733037037,24.302831 0.932444444,24.7740949 C1.32474074,25.7035734 1.88711111,26.5378499 2.60296296,27.2543847 C3.31851852,27.9709194 4.1522963,28.5335297 5.0802963,28.9264968 C6.04207407,29.3336997 7.06311111,29.5401186 8.11525926,29.5401186 C9.16740741,29.5401186 10.1881481,29.3336997 11.1499259,28.9264968 C12.0785185,28.5335297 12.912,27.9709194 13.6281481,27.2543847 C14.344,26.5378499 14.9057778,25.7035734 15.2980741,24.7743915 C15.7048889,23.8119928 15.9114074,22.7896852 15.9114074,21.7365334 L15.9114074,15.2909831 C15.9114074,15.2886105 15.9117037,15.2862378 15.9117037,15.2838652" id="Fill-7" fill="currentColor"></path><path d="M20,24 C19.44736,24 19,23.5859109 19,23.0750333 L19,0.924966701 C19,0.414089093 19.44736,0 20,0 C20.55232,0 21,0.414089093 21,0.924966701 L21,23.0750333 C21,23.5859109 20.55232,24 20,24" id="Fill-5" fill="currentColor"></path><path d="M60.9586342,24 C60.2339592,24 59.5991731,23.5202291 59.3792818,22.8064752 L55.500001,10.2189209 L51.6204274,22.8064752 C51.4005361,23.5202291 50.76575,24 50.0410749,24 C49.3128863,24 48.6772218,23.5172021 48.4593801,22.7986052 L44.0422294,8.22930936 C43.8908528,7.73077137 44.1593486,7.19984507 44.6412941,7.04365466 C45.124118,6.88746425 45.6371001,7.16503519 45.7881839,7.66327048 L50.0425389,21.6949807 L54.2746413,7.96324081 C54.4453426,7.40930972 54.9378288,7.03729807 55.500001,7.03729807 C56.0621732,7.03729807 56.5546594,7.40930972 56.7253607,7.96324081 L60.9574631,21.6949807 L65.2115253,7.66327048 C65.3629019,7.1647325 65.8761768,6.88716156 66.3584151,7.04365466 C66.8406534,7.19984507 67.1091492,7.73077137 66.9577726,8.22930936 L62.5406219,22.7986052 C62.3227802,23.5172021 61.6871157,24 60.9586342,24" id="Fill-3" fill="currentColor"></path><path d="M31.5001479,1.84924116 C27.8327967,1.84924116 24.849209,4.83288081 24.849209,8.5 C24.849209,12.1671192 27.8327967,15.1507588 31.5001479,15.1507588 C35.1674992,15.1507588 38.150791,12.1671192 38.150791,8.5 C38.150791,4.83288081 35.1674992,1.84924116 31.5001479,1.84924116 M31.5001479,17 C26.8132168,17 23,13.1870127 23,8.5 C23,3.81298733 26.8132168,0 31.5001479,0 C36.187079,0 40,3.81298733 40,8.5 C40,13.1870127 36.187079,17 31.5001479,17" id="Fill-1" fill="currentColor">
</path>
</svg>
